<svg width="36" height="37" viewBox="0 0 36 37" fill="none" xmlns="http://www.w3.org/2000/svg">
<circle cx="18.0007" cy="18.0026" r="18" fill="#FFAE95"/>
<g clip-path="url(#clip0)">
<path d="M9.9689 23.2345C11.0968 24.9439 12.227 26.6534 13.3549 28.3628C13.7376 28.9432 14.3365 29.2733 15.0366 29.1777C15.3406 29.1367 15.5927 29.032 15.8359 28.8408C16.1511 28.595 16.2861 28.3264 16.4415 27.9531C16.482 27.8575 16.5225 27.7596 16.5608 27.664C16.5045 27.8006 16.4482 27.9349 16.3897 28.0714C18.4182 23.2277 20.8271 18.5478 23.594 14.0933C24.3819 12.8254 25.1992 11.5758 26.0434 10.3444C26.2821 9.99612 26.3203 9.42252 26.2145 9.02873C26.1065 8.63268 25.8048 8.20247 25.4378 8.009C24.5755 7.5492 23.666 7.836 23.1279 8.62129C20.1067 13.0303 17.4388 17.6874 15.1672 22.5357C14.4693 24.0221 13.8164 25.5289 13.1861 27.0472C14.2149 26.9106 15.2438 26.7763 16.2726 26.6397C15.1425 24.928 14.0145 23.2209 12.8844 21.5114C12.3936 20.7694 11.3715 20.3779 10.5745 20.8991C9.84508 21.3749 9.44434 22.4401 9.9689 23.2345Z" fill="white"/>
</g>
<defs>
<clipPath id="clip0">
<rect width="16.5405" height="21.4054" fill="white" transform="translate(9.73071 7.78616)"/>
</clipPath>
</defs>
</svg>
